<mxfile host="app.diagrams.net" modified="2023-06-27T04:25:48.024Z" agent="Mozilla/5.0 (Windows NT 10.0; Win64; x64) AppleWebKit/537.36 (KHTML, like Gecko) Chrome/114.0.0.0 Safari/537.36" etag="mAhxZKTrH7leD4rfCBpi" version="21.5.0" type="github">
  <diagram id="C5RBs43oDa-KdzZeNtuy" name="Page-1">
    <mxGraphModel dx="1229" dy="546" grid="1" gridSize="10" guides="0" tooltips="1" connect="1" arrows="1" fold="1" page="1" pageScale="1" pageWidth="1600" pageHeight="1169" math="0" shadow="0">
      <root>
        <mxCell id="WIyWlLk6GJQsqaUBKTNV-0" />
        <mxCell id="WIyWlLk6GJQsqaUBKTNV-1" parent="WIyWlLk6GJQsqaUBKTNV-0" />
        <mxCell id="zkfFHV4jXpPFQw0GAbJ--0" value="Hospital" style="swimlane;fontStyle=2;align=center;verticalAlign=top;childLayout=stackLayout;horizontal=1;startSize=26;horizontalStack=0;resizeParent=1;resizeLast=0;collapsible=1;marginBottom=0;rounded=0;shadow=0;strokeWidth=1;" parent="WIyWlLk6GJQsqaUBKTNV-1" vertex="1">
          <mxGeometry x="40" y="80" width="320" height="220" as="geometry">
            <mxRectangle x="230" y="140" width="160" height="26" as="alternateBounds" />
          </mxGeometry>
        </mxCell>
        <mxCell id="zkfFHV4jXpPFQw0GAbJ--1" value="- mapaInternacoes : HashMap&lt;String, Internacao&gt;&#xa;- nome: String &#xa;- cnpj: final String &#xa;- telefone: String &#xa;- endereco: String&#xa;- mapafuncionarios : HashMap&lt;String, Internacao&gt;" style="text;align=left;verticalAlign=top;spacingLeft=4;spacingRight=4;overflow=hidden;rotatable=0;points=[[0,0.5],[1,0.5]];portConstraint=eastwest;" parent="zkfFHV4jXpPFQw0GAbJ--0" vertex="1">
          <mxGeometry y="26" width="320" height="94" as="geometry" />
        </mxCell>
        <mxCell id="zkfFHV4jXpPFQw0GAbJ--4" value="" style="line;html=1;strokeWidth=1;align=left;verticalAlign=middle;spacingTop=-1;spacingLeft=3;spacingRight=3;rotatable=0;labelPosition=right;points=[];portConstraint=eastwest;" parent="zkfFHV4jXpPFQw0GAbJ--0" vertex="1">
          <mxGeometry y="120" width="320" height="10" as="geometry" />
        </mxCell>
        <mxCell id="-9V2bEK6rvMUXnRSOSfq-13" value="+Cadastro(): boolean&lt;br&gt;+Remoção(): boolean&lt;br&gt;+BuscaProfissionalSaude(String): ProfissionalSaude&lt;br&gt;+ListarFuncionarios(): String&lt;br&gt;+ListarMedicos():String&lt;br&gt;+ListarEnfermeiros():String" style="text;html=1;strokeColor=none;fillColor=none;align=left;verticalAlign=middle;whiteSpace=wrap;rounded=0;" parent="zkfFHV4jXpPFQw0GAbJ--0" vertex="1">
          <mxGeometry y="130" width="320" height="90" as="geometry" />
        </mxCell>
        <mxCell id="-9V2bEK6rvMUXnRSOSfq-5" value="&amp;lt;&amp;lt;Interface&amp;gt;&amp;gt; Cadastrable" style="swimlane;whiteSpace=wrap;html=1;" parent="WIyWlLk6GJQsqaUBKTNV-1" vertex="1">
          <mxGeometry x="480" y="124.5" width="200" height="77" as="geometry" />
        </mxCell>
        <mxCell id="-9V2bEK6rvMUXnRSOSfq-8" value="+Cadastro: boolean&lt;br&gt;+Remoção: boolean" style="text;html=1;strokeColor=none;fillColor=none;align=center;verticalAlign=middle;whiteSpace=wrap;rounded=0;" parent="-9V2bEK6rvMUXnRSOSfq-5" vertex="1">
          <mxGeometry y="27" width="200" height="30" as="geometry" />
        </mxCell>
        <mxCell id="-9V2bEK6rvMUXnRSOSfq-11" value="" style="endArrow=none;dashed=1;html=1;dashPattern=1 3;strokeWidth=2;rounded=0;exitX=1;exitY=0.5;exitDx=0;exitDy=0;entryX=0;entryY=0;entryDx=0;entryDy=0;" parent="WIyWlLk6GJQsqaUBKTNV-1" source="zkfFHV4jXpPFQw0GAbJ--1" target="-9V2bEK6rvMUXnRSOSfq-8" edge="1">
          <mxGeometry width="50" height="50" relative="1" as="geometry">
            <mxPoint x="300" y="147" as="sourcePoint" />
            <mxPoint x="580" y="250" as="targetPoint" />
          </mxGeometry>
        </mxCell>
        <mxCell id="-9V2bEK6rvMUXnRSOSfq-19" value="ProfissionalSaude&amp;lt;abstract&amp;gt;" style="swimlane;whiteSpace=wrap;html=1;shadow=1;" parent="WIyWlLk6GJQsqaUBKTNV-1" vertex="1">
          <mxGeometry x="50" y="470" width="380" height="250" as="geometry" />
        </mxCell>
        <mxCell id="2CkzwocB3PWpD3vvepL0-0" value="- nome: String&#xa;- registro: String&#xa;- endereco: String&#xa;- fimPlantao: LocalTime&#xa;- inicioPlantao: LocalTime&#xa;- cpf: String&#xa;- mapaPacientes: HashMap &lt;String, Paciente&gt;&#xa;- limitePacientes: int&#xa;&#xa;&#xa;" style="text;align=left;verticalAlign=top;spacingLeft=4;spacingRight=4;overflow=hidden;rotatable=0;points=[[0,0.5],[1,0.5]];portConstraint=eastwest;" parent="-9V2bEK6rvMUXnRSOSfq-19" vertex="1">
          <mxGeometry y="20" width="320" height="120" as="geometry" />
        </mxCell>
        <mxCell id="2CkzwocB3PWpD3vvepL0-1" value="" style="edgeStyle=none;orthogonalLoop=1;jettySize=auto;html=1;rounded=0;exitX=-0.002;exitY=1.01;exitDx=0;exitDy=0;endArrow=none;endFill=0;exitPerimeter=0;" parent="-9V2bEK6rvMUXnRSOSfq-19" source="2CkzwocB3PWpD3vvepL0-0" edge="1">
          <mxGeometry width="80" relative="1" as="geometry">
            <mxPoint x="110" y="160" as="sourcePoint" />
            <mxPoint x="380" y="141" as="targetPoint" />
            <Array as="points" />
          </mxGeometry>
        </mxCell>
        <mxCell id="2CkzwocB3PWpD3vvepL0-2" value="+ Cadastro(): boolean&#xa;+ Remoção(): boolean&#xa;+ gerarReceita(String, String, ProfissionalSaude, String)&#xa;+ gerarReceita(String, String, ProfissionalSaude, LocalDate, String)&#xa;+ removerReceita(String, String)&#xa;+ achaPaciente(String)&#xa;+ interfere(String, String)" style="text;align=left;verticalAlign=top;spacingLeft=4;spacingRight=4;overflow=hidden;rotatable=0;points=[[0,0.5],[1,0.5]];portConstraint=eastwest;" parent="-9V2bEK6rvMUXnRSOSfq-19" vertex="1">
          <mxGeometry y="140" width="380" height="110" as="geometry" />
        </mxCell>
        <mxCell id="-9V2bEK6rvMUXnRSOSfq-26" value="" style="endArrow=classic;html=1;rounded=0;entryX=0.385;entryY=-0.006;entryDx=0;entryDy=0;entryPerimeter=0;exitX=0.75;exitY=1;exitDx=0;exitDy=0;" parent="WIyWlLk6GJQsqaUBKTNV-1" source="-9V2bEK6rvMUXnRSOSfq-13" target="-9V2bEK6rvMUXnRSOSfq-19" edge="1">
          <mxGeometry relative="1" as="geometry">
            <mxPoint x="130" y="390" as="sourcePoint" />
            <mxPoint x="600" y="700" as="targetPoint" />
            <Array as="points">
              <mxPoint x="280" y="360" />
              <mxPoint x="196" y="360" />
            </Array>
          </mxGeometry>
        </mxCell>
        <mxCell id="-9V2bEK6rvMUXnRSOSfq-29" value="0..*" style="edgeLabel;resizable=0;html=1;align=right;verticalAlign=bottom;" parent="-9V2bEK6rvMUXnRSOSfq-26" connectable="0" vertex="1">
          <mxGeometry x="1" relative="1" as="geometry">
            <mxPoint x="20" as="offset" />
          </mxGeometry>
        </mxCell>
        <mxCell id="-9V2bEK6rvMUXnRSOSfq-47" value="" style="endArrow=none;dashed=1;html=1;dashPattern=1 3;strokeWidth=2;rounded=0;entryX=0.5;entryY=1;entryDx=0;entryDy=0;exitX=1;exitY=0.25;exitDx=0;exitDy=0;" parent="WIyWlLk6GJQsqaUBKTNV-1" source="-9V2bEK6rvMUXnRSOSfq-19" target="-9V2bEK6rvMUXnRSOSfq-5" edge="1">
          <mxGeometry width="50" height="50" relative="1" as="geometry">
            <mxPoint x="660" y="320" as="sourcePoint" />
            <mxPoint x="710" y="270" as="targetPoint" />
            <Array as="points">
              <mxPoint x="580" y="533" />
            </Array>
          </mxGeometry>
        </mxCell>
        <mxCell id="-9V2bEK6rvMUXnRSOSfq-478" value="Medique" style="swimlane;whiteSpace=wrap;html=1;" parent="WIyWlLk6GJQsqaUBKTNV-1" vertex="1">
          <mxGeometry x="20" y="770" width="200" height="140" as="geometry" />
        </mxCell>
        <mxCell id="-9V2bEK6rvMUXnRSOSfq-34" value="- especialidade : String&lt;br&gt;- custo: double" style="text;html=1;strokeColor=none;fillColor=none;align=left;verticalAlign=middle;whiteSpace=wrap;rounded=0;" parent="-9V2bEK6rvMUXnRSOSfq-478" vertex="1">
          <mxGeometry y="20" width="200" height="40" as="geometry" />
        </mxCell>
        <mxCell id="-9V2bEK6rvMUXnRSOSfq-529" value="+ gerarlaudo: boolean&lt;br&gt;+ Solicitacao exame: boolean&lt;br&gt;+ geraratestado: boolean&lt;br&gt;+ cobrar: boolean" style="text;html=1;strokeColor=none;fillColor=none;align=left;verticalAlign=middle;whiteSpace=wrap;rounded=0;" parent="-9V2bEK6rvMUXnRSOSfq-478" vertex="1">
          <mxGeometry x="10" y="60" width="200" height="80" as="geometry" />
        </mxCell>
        <mxCell id="2CkzwocB3PWpD3vvepL0-5" value="" style="edgeStyle=none;orthogonalLoop=1;jettySize=auto;html=1;rounded=0;endArrow=none;endFill=0;exitX=0;exitY=1;exitDx=0;exitDy=0;entryX=1;entryY=1;entryDx=0;entryDy=0;" parent="-9V2bEK6rvMUXnRSOSfq-478" source="-9V2bEK6rvMUXnRSOSfq-34" target="-9V2bEK6rvMUXnRSOSfq-34" edge="1">
          <mxGeometry width="80" relative="1" as="geometry">
            <mxPoint y="80" as="sourcePoint" />
            <mxPoint x="200" y="80" as="targetPoint" />
            <Array as="points">
              <mxPoint x="100" y="60" />
            </Array>
          </mxGeometry>
        </mxCell>
        <mxCell id="-9V2bEK6rvMUXnRSOSfq-479" value="Enfermeire" style="swimlane;whiteSpace=wrap;html=1;" parent="WIyWlLk6GJQsqaUBKTNV-1" vertex="1">
          <mxGeometry x="260" y="770" width="200" height="120" as="geometry" />
        </mxCell>
        <mxCell id="-9V2bEK6rvMUXnRSOSfq-492" value="- alimentar&lt;br&gt;-dar banho" style="text;html=1;strokeColor=none;fillColor=none;align=left;verticalAlign=middle;whiteSpace=wrap;rounded=0;" parent="-9V2bEK6rvMUXnRSOSfq-479" vertex="1">
          <mxGeometry y="60" width="200" height="60" as="geometry" />
        </mxCell>
        <mxCell id="2CkzwocB3PWpD3vvepL0-6" value="" style="edgeStyle=none;orthogonalLoop=1;jettySize=auto;html=1;rounded=0;endArrow=none;endFill=0;exitX=0;exitY=1;exitDx=0;exitDy=0;entryX=1;entryY=1;entryDx=0;entryDy=0;" parent="-9V2bEK6rvMUXnRSOSfq-479" edge="1">
          <mxGeometry width="80" relative="1" as="geometry">
            <mxPoint y="60" as="sourcePoint" />
            <mxPoint x="200" y="60" as="targetPoint" />
            <Array as="points">
              <mxPoint x="100" y="60" />
            </Array>
          </mxGeometry>
        </mxCell>
        <mxCell id="DUk6I2xnCjZQWjMvz-8V-1" style="edgeStyle=orthogonalEdgeStyle;rounded=0;orthogonalLoop=1;jettySize=auto;html=1;exitX=1;exitY=1;exitDx=0;exitDy=0;" parent="WIyWlLk6GJQsqaUBKTNV-1" source="-9V2bEK6rvMUXnRSOSfq-493" target="-9V2bEK6rvMUXnRSOSfq-531" edge="1">
          <mxGeometry relative="1" as="geometry">
            <mxPoint x="600" y="1930" as="targetPoint" />
          </mxGeometry>
        </mxCell>
        <mxCell id="DUk6I2xnCjZQWjMvz-8V-3" style="edgeStyle=orthogonalEdgeStyle;rounded=0;orthogonalLoop=1;jettySize=auto;html=1;exitX=0.75;exitY=1;exitDx=0;exitDy=0;" parent="WIyWlLk6GJQsqaUBKTNV-1" source="-9V2bEK6rvMUXnRSOSfq-493" target="-9V2bEK6rvMUXnRSOSfq-530" edge="1">
          <mxGeometry relative="1" as="geometry" />
        </mxCell>
        <mxCell id="-9V2bEK6rvMUXnRSOSfq-493" value="Paciente &amp;lt;abstract&amp;gt;" style="swimlane;whiteSpace=wrap;html=1;startSize=30;" parent="WIyWlLk6GJQsqaUBKTNV-1" vertex="1">
          <mxGeometry x="50" y="1210" width="230" height="220" as="geometry" />
        </mxCell>
        <mxCell id="-9V2bEK6rvMUXnRSOSfq-513" value="- nome: String&lt;br&gt;- idade: int&lt;br&gt;- remediosProibidos&lt;br&gt;- nivel de dor: int&lt;br&gt;- especialidadePrecisa: String&lt;br&gt;- quarto: String&lt;br&gt;&lt;div&gt;- gravidade: String&lt;/div&gt;&lt;div&gt;-cpf&lt;br&gt;&lt;/div&gt;" style="text;html=1;strokeColor=none;fillColor=none;align=left;verticalAlign=middle;whiteSpace=wrap;rounded=0;" parent="-9V2bEK6rvMUXnRSOSfq-493" vertex="1">
          <mxGeometry y="33" width="230" height="100" as="geometry" />
        </mxCell>
        <mxCell id="-9V2bEK6rvMUXnRSOSfq-532" value="atestado" style="text;html=1;strokeColor=none;fillColor=none;align=center;verticalAlign=middle;whiteSpace=wrap;rounded=0;" parent="-9V2bEK6rvMUXnRSOSfq-493" vertex="1">
          <mxGeometry y="140" width="60" height="30" as="geometry" />
        </mxCell>
        <mxCell id="-9V2bEK6rvMUXnRSOSfq-541" value="log atestados, exames" style="text;html=1;strokeColor=none;fillColor=none;align=center;verticalAlign=middle;whiteSpace=wrap;rounded=0;" parent="-9V2bEK6rvMUXnRSOSfq-493" vertex="1">
          <mxGeometry x="80" y="150" width="60" height="30" as="geometry" />
        </mxCell>
        <mxCell id="-9V2bEK6rvMUXnRSOSfq-533" value="listalaudos" style="text;html=1;strokeColor=none;fillColor=none;align=center;verticalAlign=middle;whiteSpace=wrap;rounded=0;" parent="-9V2bEK6rvMUXnRSOSfq-493" vertex="1">
          <mxGeometry x="140" y="140" width="60" height="30" as="geometry" />
        </mxCell>
        <mxCell id="-9V2bEK6rvMUXnRSOSfq-511" value="gerar gravidade" style="text;html=1;strokeColor=none;fillColor=none;align=center;verticalAlign=middle;whiteSpace=wrap;rounded=0;" parent="-9V2bEK6rvMUXnRSOSfq-493" vertex="1">
          <mxGeometry x="140" y="170" width="60" height="30" as="geometry" />
        </mxCell>
        <mxCell id="-9V2bEK6rvMUXnRSOSfq-510" value="Sintomas" style="text;html=1;strokeColor=none;fillColor=none;align=center;verticalAlign=middle;whiteSpace=wrap;rounded=0;" parent="-9V2bEK6rvMUXnRSOSfq-493" vertex="1">
          <mxGeometry x="150" y="40" width="60" height="30" as="geometry" />
        </mxCell>
        <mxCell id="-9V2bEK6rvMUXnRSOSfq-514" value="examesproibidos" style="text;html=1;strokeColor=none;fillColor=none;align=center;verticalAlign=middle;whiteSpace=wrap;rounded=0;" parent="-9V2bEK6rvMUXnRSOSfq-493" vertex="1">
          <mxGeometry x="20" y="130" width="60" height="30" as="geometry" />
        </mxCell>
        <mxCell id="7ZToV1xSenbU9wtrFbAR-0" value="Medico" style="text;html=1;strokeColor=none;fillColor=none;align=center;verticalAlign=middle;whiteSpace=wrap;rounded=0;" parent="-9V2bEK6rvMUXnRSOSfq-493" vertex="1">
          <mxGeometry x="170" y="80" width="60" height="30" as="geometry" />
        </mxCell>
        <mxCell id="-9V2bEK6rvMUXnRSOSfq-494" value="Particular" style="swimlane;whiteSpace=wrap;html=1;startSize=23;" parent="WIyWlLk6GJQsqaUBKTNV-1" vertex="1">
          <mxGeometry x="30" y="1460" width="200" height="200" as="geometry" />
        </mxCell>
        <mxCell id="-9V2bEK6rvMUXnRSOSfq-515" value="-Convenio" style="text;html=1;strokeColor=none;fillColor=none;align=center;verticalAlign=middle;whiteSpace=wrap;rounded=0;" parent="-9V2bEK6rvMUXnRSOSfq-494" vertex="1">
          <mxGeometry x="60" y="40" width="60" height="30" as="geometry" />
        </mxCell>
        <mxCell id="-9V2bEK6rvMUXnRSOSfq-523" value="-custo" style="text;html=1;strokeColor=none;fillColor=none;align=center;verticalAlign=middle;whiteSpace=wrap;rounded=0;" parent="-9V2bEK6rvMUXnRSOSfq-494" vertex="1">
          <mxGeometry x="70" y="100" width="60" height="30" as="geometry" />
        </mxCell>
        <mxCell id="-9V2bEK6rvMUXnRSOSfq-526" value="idconvenio:" style="text;html=1;strokeColor=none;fillColor=none;align=center;verticalAlign=middle;whiteSpace=wrap;rounded=0;" parent="-9V2bEK6rvMUXnRSOSfq-494" vertex="1">
          <mxGeometry x="80" y="70" width="60" height="30" as="geometry" />
        </mxCell>
        <mxCell id="-9V2bEK6rvMUXnRSOSfq-496" value="SUS" style="swimlane;whiteSpace=wrap;html=1;" parent="WIyWlLk6GJQsqaUBKTNV-1" vertex="1">
          <mxGeometry x="450" y="1450" width="200" height="200" as="geometry" />
        </mxCell>
        <mxCell id="-9V2bEK6rvMUXnRSOSfq-519" value="-cama" style="text;html=1;strokeColor=none;fillColor=none;align=center;verticalAlign=middle;whiteSpace=wrap;rounded=0;" parent="-9V2bEK6rvMUXnRSOSfq-496" vertex="1">
          <mxGeometry x="80" y="40" width="60" height="26" as="geometry" />
        </mxCell>
        <mxCell id="-9V2bEK6rvMUXnRSOSfq-527" value="numerosus:" style="text;html=1;strokeColor=none;fillColor=none;align=center;verticalAlign=middle;whiteSpace=wrap;rounded=0;" parent="-9V2bEK6rvMUXnRSOSfq-496" vertex="1">
          <mxGeometry x="80" y="116" width="60" height="30" as="geometry" />
        </mxCell>
        <mxCell id="-9V2bEK6rvMUXnRSOSfq-500" value="&#39;" style="endArrow=classic;html=1;rounded=0;" parent="WIyWlLk6GJQsqaUBKTNV-1" edge="1">
          <mxGeometry relative="1" as="geometry">
            <mxPoint x="270" y="1280" as="sourcePoint" />
            <mxPoint x="450" y="1280" as="targetPoint" />
            <Array as="points" />
          </mxGeometry>
        </mxCell>
        <mxCell id="-9V2bEK6rvMUXnRSOSfq-501" value="Label" style="edgeLabel;resizable=0;html=1;align=center;verticalAlign=middle;" parent="-9V2bEK6rvMUXnRSOSfq-500" connectable="0" vertex="1">
          <mxGeometry relative="1" as="geometry" />
        </mxCell>
        <mxCell id="-9V2bEK6rvMUXnRSOSfq-502" value="0...*" style="edgeLabel;resizable=0;html=1;align=left;verticalAlign=bottom;" parent="-9V2bEK6rvMUXnRSOSfq-500" connectable="0" vertex="1">
          <mxGeometry x="-1" relative="1" as="geometry" />
        </mxCell>
        <mxCell id="-9V2bEK6rvMUXnRSOSfq-503" value="Exame" style="swimlane;whiteSpace=wrap;html=1;" parent="WIyWlLk6GJQsqaUBKTNV-1" vertex="1">
          <mxGeometry x="250" y="1720" width="200" height="200" as="geometry" />
        </mxCell>
        <mxCell id="-9V2bEK6rvMUXnRSOSfq-543" value="custo" style="text;html=1;strokeColor=none;fillColor=none;align=center;verticalAlign=middle;whiteSpace=wrap;rounded=0;" parent="-9V2bEK6rvMUXnRSOSfq-503" vertex="1">
          <mxGeometry x="55" y="68" width="60" height="30" as="geometry" />
        </mxCell>
        <mxCell id="-9V2bEK6rvMUXnRSOSfq-547" value="data" style="text;html=1;strokeColor=none;fillColor=none;align=center;verticalAlign=middle;whiteSpace=wrap;rounded=0;" parent="-9V2bEK6rvMUXnRSOSfq-503" vertex="1">
          <mxGeometry x="70" y="130" width="60" height="30" as="geometry" />
        </mxCell>
        <mxCell id="-9V2bEK6rvMUXnRSOSfq-542" value="nome" style="text;html=1;align=center;verticalAlign=middle;resizable=0;points=[];autosize=1;strokeColor=none;fillColor=none;" parent="-9V2bEK6rvMUXnRSOSfq-503" vertex="1">
          <mxGeometry x="75" y="38" width="50" height="30" as="geometry" />
        </mxCell>
        <mxCell id="-9V2bEK6rvMUXnRSOSfq-530" value="Atestado" style="swimlane;whiteSpace=wrap;html=1;" parent="WIyWlLk6GJQsqaUBKTNV-1" vertex="1">
          <mxGeometry x="40" y="1960" width="200" height="200" as="geometry" />
        </mxCell>
        <mxCell id="-9V2bEK6rvMUXnRSOSfq-534" value="-medicos" style="text;html=1;strokeColor=none;fillColor=none;align=center;verticalAlign=middle;whiteSpace=wrap;rounded=0;" parent="-9V2bEK6rvMUXnRSOSfq-530" vertex="1">
          <mxGeometry x="90" y="50" width="60" height="30" as="geometry" />
        </mxCell>
        <mxCell id="-9V2bEK6rvMUXnRSOSfq-535" value="-diasdeausencia" style="text;html=1;strokeColor=none;fillColor=none;align=center;verticalAlign=middle;whiteSpace=wrap;rounded=0;" parent="-9V2bEK6rvMUXnRSOSfq-530" vertex="1">
          <mxGeometry x="30" y="70" width="60" height="30" as="geometry" />
        </mxCell>
        <mxCell id="-9V2bEK6rvMUXnRSOSfq-536" value="datadoatendimento" style="text;html=1;strokeColor=none;fillColor=none;align=center;verticalAlign=middle;whiteSpace=wrap;rounded=0;" parent="-9V2bEK6rvMUXnRSOSfq-530" vertex="1">
          <mxGeometry x="70" y="120" width="60" height="30" as="geometry" />
        </mxCell>
        <mxCell id="-9V2bEK6rvMUXnRSOSfq-531" value="Laudo" style="swimlane;whiteSpace=wrap;html=1;" parent="WIyWlLk6GJQsqaUBKTNV-1" vertex="1">
          <mxGeometry x="470" y="1960" width="200" height="200" as="geometry" />
        </mxCell>
        <mxCell id="-9V2bEK6rvMUXnRSOSfq-538" value="-medico" style="text;html=1;strokeColor=none;fillColor=none;align=center;verticalAlign=middle;whiteSpace=wrap;rounded=0;" parent="-9V2bEK6rvMUXnRSOSfq-531" vertex="1">
          <mxGeometry x="90" y="40" width="60" height="30" as="geometry" />
        </mxCell>
        <mxCell id="-9V2bEK6rvMUXnRSOSfq-539" value="-doença" style="text;html=1;strokeColor=none;fillColor=none;align=center;verticalAlign=middle;whiteSpace=wrap;rounded=0;" parent="-9V2bEK6rvMUXnRSOSfq-531" vertex="1">
          <mxGeometry x="70" y="85" width="60" height="30" as="geometry" />
        </mxCell>
        <mxCell id="-9V2bEK6rvMUXnRSOSfq-540" value="datadoatendimento" style="text;html=1;strokeColor=none;fillColor=none;align=center;verticalAlign=middle;whiteSpace=wrap;rounded=0;" parent="-9V2bEK6rvMUXnRSOSfq-531" vertex="1">
          <mxGeometry x="70" y="115" width="60" height="30" as="geometry" />
        </mxCell>
        <mxCell id="-9V2bEK6rvMUXnRSOSfq-40" value="Receita" style="swimlane;whiteSpace=wrap;html=1;startSize=30;" parent="WIyWlLk6GJQsqaUBKTNV-1" vertex="1">
          <mxGeometry x="450" y="1190" width="200" height="150" as="geometry" />
        </mxCell>
        <mxCell id="-9V2bEK6rvMUXnRSOSfq-42" value="- remedio: String&lt;br&gt;- dosagem:String&lt;br&gt;- profissional: ProfissionalSaude" style="text;html=1;strokeColor=none;fillColor=none;align=left;verticalAlign=middle;whiteSpace=wrap;rounded=0;" parent="-9V2bEK6rvMUXnRSOSfq-40" vertex="1">
          <mxGeometry y="30" width="200" height="63" as="geometry" />
        </mxCell>
        <mxCell id="-9V2bEK6rvMUXnRSOSfq-45" value="+ Listainterferencias: LinkedList: String&lt;br&gt;&lt;div style=&quot;&quot;&gt;&lt;span style=&quot;background-color: initial;&quot;&gt;+ datavalidade: LocalDate;&lt;/span&gt;&lt;/div&gt;" style="text;html=1;strokeColor=none;fillColor=none;align=left;verticalAlign=middle;whiteSpace=wrap;rounded=0;" parent="-9V2bEK6rvMUXnRSOSfq-40" vertex="1">
          <mxGeometry y="93" width="200" height="60" as="geometry" />
        </mxCell>
        <mxCell id="2CkzwocB3PWpD3vvepL0-7" value="" style="edgeStyle=none;orthogonalLoop=1;jettySize=auto;html=1;rounded=0;endArrow=none;endFill=0;exitX=0;exitY=1;exitDx=0;exitDy=0;entryX=1;entryY=1;entryDx=0;entryDy=0;" parent="-9V2bEK6rvMUXnRSOSfq-40" source="-9V2bEK6rvMUXnRSOSfq-42" target="-9V2bEK6rvMUXnRSOSfq-42" edge="1">
          <mxGeometry width="80" relative="1" as="geometry">
            <mxPoint y="100" as="sourcePoint" />
            <mxPoint x="200" y="100" as="targetPoint" />
            <Array as="points" />
          </mxGeometry>
        </mxCell>
        <mxCell id="CyfO7_76a3TtjCnsQ1G2-0" value="Internacao" style="swimlane;whiteSpace=wrap;html=1;startSize=20;" parent="WIyWlLk6GJQsqaUBKTNV-1" vertex="1">
          <mxGeometry x="740" y="120" width="200" height="200" as="geometry" />
        </mxCell>
        <mxCell id="XoWCgdNntx8YlR83VrCc-2" value="- id: String&lt;br&gt;&lt;u&gt;- contador : int&lt;/u&gt;&lt;br&gt;- paciente: Paciente&lt;br&gt;- enfermeire: Enfermeire&lt;br&gt;- medique: Medique&lt;br&gt;- entrada: LocalDateTime&lt;br&gt;- custo: double&lt;br&gt;- saida: LocalDateTime&lt;br&gt;- hospital: Hospital" style="text;strokeColor=none;align=left;fillColor=none;html=1;verticalAlign=middle;whiteSpace=wrap;rounded=0;" vertex="1" parent="CyfO7_76a3TtjCnsQ1G2-0">
          <mxGeometry y="20" width="200" height="140" as="geometry" />
        </mxCell>
        <mxCell id="XoWCgdNntx8YlR83VrCc-6" value="" style="endArrow=none;html=1;rounded=0;exitX=0;exitY=1;exitDx=0;exitDy=0;entryX=1;entryY=1;entryDx=0;entryDy=0;" edge="1" parent="CyfO7_76a3TtjCnsQ1G2-0" source="XoWCgdNntx8YlR83VrCc-2" target="XoWCgdNntx8YlR83VrCc-2">
          <mxGeometry width="50" height="50" relative="1" as="geometry">
            <mxPoint x="410" y="180" as="sourcePoint" />
            <mxPoint x="460" y="130" as="targetPoint" />
          </mxGeometry>
        </mxCell>
        <mxCell id="XoWCgdNntx8YlR83VrCc-10" value="&lt;div style=&quot;text-align: left;&quot;&gt;&lt;span style=&quot;background-color: initial;&quot;&gt;+ cuida(): void&lt;/span&gt;&lt;/div&gt;&lt;div style=&quot;text-align: left;&quot;&gt;&lt;span style=&quot;background-color: initial;&quot;&gt;+ alocaEnfermeire(): void&lt;/span&gt;&lt;/div&gt;" style="text;html=1;align=center;verticalAlign=middle;resizable=0;points=[];autosize=1;strokeColor=none;fillColor=none;" vertex="1" parent="CyfO7_76a3TtjCnsQ1G2-0">
          <mxGeometry x="-5" y="160" width="160" height="40" as="geometry" />
        </mxCell>
        <mxCell id="CyfO7_76a3TtjCnsQ1G2-9" value="remedioincompativel" style="swimlane;whiteSpace=wrap;html=1;" parent="WIyWlLk6GJQsqaUBKTNV-1" vertex="1">
          <mxGeometry x="550" y="690" width="200" height="200" as="geometry" />
        </mxCell>
        <mxCell id="CyfO7_76a3TtjCnsQ1G2-10" value="exameincompativel" style="swimlane;whiteSpace=wrap;html=1;" parent="WIyWlLk6GJQsqaUBKTNV-1" vertex="1">
          <mxGeometry x="795" y="680" width="200" height="200" as="geometry" />
        </mxCell>
        <mxCell id="CyfO7_76a3TtjCnsQ1G2-11" value="ProfissionalUnfit" style="swimlane;whiteSpace=wrap;html=1;" parent="WIyWlLk6GJQsqaUBKTNV-1" vertex="1">
          <mxGeometry x="1080" y="690" width="200" height="200" as="geometry" />
        </mxCell>
        <mxCell id="Ks9QB9N6ebiZV_AhtOyt-0" value="Arquivo Profissionais" style="swimlane;whiteSpace=wrap;html=1;" parent="WIyWlLk6GJQsqaUBKTNV-1" vertex="1">
          <mxGeometry x="1070" y="370" width="200" height="200" as="geometry" />
        </mxCell>
        <mxCell id="Ks9QB9N6ebiZV_AhtOyt-2" value="Arquivo Atestados" style="swimlane;whiteSpace=wrap;html=1;" parent="WIyWlLk6GJQsqaUBKTNV-1" vertex="1">
          <mxGeometry x="880" y="1310" width="200" height="200" as="geometry" />
        </mxCell>
        <mxCell id="Ks9QB9N6ebiZV_AhtOyt-3" value="Arquivo Receitas" style="swimlane;whiteSpace=wrap;html=1;" parent="WIyWlLk6GJQsqaUBKTNV-1" vertex="1">
          <mxGeometry x="910" y="1570" width="200" height="200" as="geometry" />
        </mxCell>
        <mxCell id="Ks9QB9N6ebiZV_AhtOyt-4" value="ArquivoLaudo" style="swimlane;whiteSpace=wrap;html=1;" parent="WIyWlLk6GJQsqaUBKTNV-1" vertex="1">
          <mxGeometry x="1120" y="1290" width="200" height="200" as="geometry" />
        </mxCell>
        <mxCell id="Ks9QB9N6ebiZV_AhtOyt-5" value="PacientenotFound" style="swimlane;whiteSpace=wrap;html=1;" parent="WIyWlLk6GJQsqaUBKTNV-1" vertex="1">
          <mxGeometry x="765" y="890" width="200" height="200" as="geometry" />
        </mxCell>
        <mxCell id="CyfO7_76a3TtjCnsQ1G2-8" style="edgeStyle=orthogonalEdgeStyle;rounded=0;orthogonalLoop=1;jettySize=auto;html=1;exitX=1;exitY=0.25;exitDx=0;exitDy=0;" parent="WIyWlLk6GJQsqaUBKTNV-1" source="-9V2bEK6rvMUXnRSOSfq-13" edge="1">
          <mxGeometry relative="1" as="geometry">
            <mxPoint x="740" y="280" as="targetPoint" />
            <mxPoint x="370" y="240" as="sourcePoint" />
            <Array as="points">
              <mxPoint x="360" y="240" />
              <mxPoint x="670" y="240" />
              <mxPoint x="670" y="280" />
            </Array>
          </mxGeometry>
        </mxCell>
      </root>
    </mxGraphModel>
  </diagram>
</mxfile>
